<svg xmlns="http://www.w3.org/2000/svg" version="1.1" width="448" height="448" viewBox="0 0 448 448">
<path fill="#fff" d="M409.539 165.982c7.356 0 13.528 7.579 15.113 12.888h19.219c-1.752-21.238-16.483-33.232-34.335-33.232-17.855 0-32.583 11.994-34.338 33.232h19.219c1.59-5.309 7.76-12.888 15.12-12.888z"/>
<path fill="#fff" d="M409.539 218.765c18.282 0 33.281-16.002 34.431-34.585h-19.079c-1.080 7.964-7.553 14.24-15.352 14.24-7.802 0-14.277-6.276-15.355-14.24h-19.079c1.15 18.582 16.145 34.585 34.433 34.585z"/>
<path fill="#fff" d="M320.502 285.049c-30.274 0.064-55.507-21.612-60.964-50.308l-6.037 0.013c0.011-0.133 0.031-0.263 0.042-0.393l-58.115-0.008c-0.024 0.135-0.066 0.266-0.093 0.266h-0.993c0.084 0 0.215 2.052 0.324 3.015-6.581 27.073-30.887 47.288-59.99 47.351-30.276 0.064-55.507-21.58-60.964-50.277l-65.196 0.157c5.522 62.942 58.4 112.266 122.752 112.129 37.030-0.077 70.168-16.536 92.652-42.475 22.602 26.071 55.955 42.557 93.176 42.48 64.349-0.138 117.018-49.674 122.274-112.64l-58.115 0.122c-5.336 28.721-30.478 50.503-60.752 50.566z"/>
<path fill="#fff" d="M130.038 166.232c30.276-0.064 55.507 21.612 60.964 50.308l65.196-0.138c-5.52-62.942-58.4-112.257-122.752-112.122-64.349 0.138-117.019 49.677-122.274 112.642l58.115-0.122c5.334-28.721 30.473-50.503 60.749-50.569z"/>
</svg>