<svg width="107" height="40" viewBox="0 0 107 40" fill="none" xmlns="http://www.w3.org/2000/svg">
<g clip-path="url(#clip0_7746_34146)">
<path d="M4 7.76141H8.04265V9.84602C8.98593 8.62245 10.1987 7.4895 12.265 7.4895C14.1066 7.4895 15.544 8.35054 16.3076 9.80071C17.5653 8.30522 19.0476 7.4895 20.9791 7.4895C23.9887 7.4895 25.7854 9.34753 25.7854 12.8823V22.4444H21.7427V14.2418C21.7427 12.2479 20.8893 11.2509 19.3621 11.2509C17.8348 11.2509 16.8916 12.2479 16.8916 14.2418V22.4444H12.8489V14.2418C12.8489 12.2479 11.9955 11.2509 10.4682 11.2509C8.98593 11.2509 8.04265 12.2932 8.04265 14.2418V22.4444H4V7.76141Z" fill="white"/>
<path d="M39.2609 15.1935V15.1482C39.2609 12.973 37.7337 11.0696 35.4878 11.0696C33.2418 11.0696 31.8044 12.9276 31.8044 15.0576V15.1029C31.8044 17.2781 33.3317 19.1815 35.5776 19.1815C37.8235 19.1815 39.2609 17.3688 39.2609 15.1935ZM27.8067 15.1935V15.1482C27.8067 10.9337 31.1307 7.4895 35.5776 7.4895C40.0245 7.4895 43.2586 10.843 43.2586 15.1029V15.1482C43.2586 19.3628 39.9347 22.8069 35.4878 22.8069C31.0858 22.8069 27.8067 19.4081 27.8067 15.1935Z" fill="white"/>
<path d="M43.3484 7.76135H47.6157L50.8049 17.5953L54.039 7.76135H58.2613L52.6465 22.5803H48.9632L43.3484 7.76135Z" fill="white"/>
<path d="M69.7604 15.1935V15.1482C69.7604 12.973 68.2332 11.0696 65.9873 11.0696C63.7414 11.0696 62.304 12.9276 62.304 15.0576V15.1029C62.304 17.2781 63.8312 19.1815 66.0771 19.1815C68.2781 19.1815 69.7604 17.3688 69.7604 15.1935ZM58.3063 15.1935V15.1482C58.3063 10.9337 61.6302 7.4895 66.0771 7.4895C70.5241 7.4895 73.7582 10.843 73.7582 15.1029V15.1482C73.7582 19.3628 70.4342 22.8069 65.9873 22.8069C61.5404 22.8069 58.3063 19.4081 58.3063 15.1935Z" fill="white"/>
<path d="M76.5431 18.2751V11.3415H74.8362V7.76137H76.5431V4H80.5858V7.76137H83.9546V11.3415H80.5858V17.5953C80.5858 18.547 80.99 19.0002 81.8884 19.0002C82.652 19.0002 83.2809 18.8189 83.8648 18.5017V21.8552C83.0114 22.3537 82.0231 22.7162 80.6756 22.7162C78.25 22.7162 76.5431 21.6739 76.5431 18.2751Z" fill="white"/>
<path d="M96.4868 15.1935V15.1482C96.4868 12.973 94.9596 11.0696 92.7137 11.0696C90.4678 11.0696 89.0304 12.9276 89.0304 15.0576V15.1029C89.0304 17.2781 90.5576 19.1815 92.8035 19.1815C95.0494 19.1815 96.4868 17.3688 96.4868 15.1935ZM85.0327 15.1935V15.1482C85.0327 10.9337 88.3566 7.4895 92.8035 7.4895C97.2504 7.4895 100.485 10.843 100.485 15.1029V15.1482C100.485 19.3628 97.1606 22.8069 92.7137 22.8069C88.3117 22.8069 85.0327 19.4081 85.0327 15.1935Z" fill="white"/>
<path d="M91.4494 30.4132C91.6013 29.6467 92.0268 29.1561 92.6954 29.1561C93.3945 29.1561 93.82 29.6773 93.9111 30.4132H91.4494ZM95.5523 30.9958C95.5219 29.34 94.6406 27.7762 92.7258 27.7762C91.0543 27.7762 89.8386 29.1867 89.8386 30.8732V30.9038C89.8386 32.7436 91.115 34.0008 92.8778 34.0008C93.3337 34.0314 93.7896 33.9088 94.1847 33.7248C94.6102 33.5408 94.9445 33.2342 95.2484 32.8662L94.3062 32.0077C94.1239 32.1917 93.9111 32.345 93.668 32.4676C93.4249 32.5596 93.1817 32.6209 92.9082 32.6209C92.5739 32.6516 92.2396 32.529 91.966 32.3143C91.6925 32.0997 91.5405 31.7931 91.4798 31.4558H95.5219C95.5219 31.3331 95.5523 31.1491 95.5523 30.9958Z" fill="white"/>
<path d="M86.9817 31.5478L85.8876 27.8683H84.4591L83.365 31.5171L82.4228 27.8989H80.7513L82.5444 33.9395H84.0336L85.1581 30.26L86.2827 33.9395H87.7415L89.565 27.8989H87.9239L86.9817 31.5478Z" fill="white"/>
<path d="M72.4541 25.7526H70.8129V33.9088H72.4541V25.7526Z" fill="white"/>
<path d="M98.1965 29.0948V27.899H96.5553V33.8782H98.1965V31.6705C98.1965 30.2293 98.8651 29.5547 99.9592 29.5547H100.05V27.7763C99.0779 27.7456 98.5308 28.2669 98.1965 29.0948Z" fill="white"/>
<path fill-rule="evenodd" clip-rule="evenodd" d="M101.296 26.4578C101.296 26.5191 101.236 26.5498 101.175 26.5498H101.023V26.3658H101.175C101.236 26.3658 101.296 26.3965 101.296 26.4578ZM101.357 26.7338C101.479 26.7031 101.54 26.6111 101.54 26.4578C101.54 26.3658 101.509 26.3045 101.448 26.2432C101.388 26.1818 101.296 26.1512 101.175 26.1512H100.749V27.0404H100.993V26.7644H101.114L101.296 27.0404H101.57L101.357 26.7338ZM101.296 26.4578C101.296 26.5191 101.236 26.5498 101.175 26.5498H101.023V26.3658H101.175C101.236 26.3658 101.296 26.3965 101.296 26.4578ZM101.357 26.7338C101.479 26.7031 101.54 26.6111 101.54 26.4578C101.54 26.3658 101.509 26.3045 101.448 26.2432C101.388 26.1818 101.296 26.1512 101.175 26.1512H100.749V27.0404H100.993V26.7644H101.114L101.296 27.0404H101.57L101.357 26.7338ZM101.296 26.4578C101.296 26.5191 101.236 26.5498 101.175 26.5498H101.023V26.3658H101.175C101.236 26.3658 101.296 26.3965 101.296 26.4578ZM101.357 26.7338C101.479 26.7031 101.54 26.6111 101.54 26.4578C101.54 26.3658 101.509 26.3045 101.448 26.2432C101.388 26.1818 101.296 26.1512 101.175 26.1512H100.749V27.0404H100.993V26.7644H101.114L101.296 27.0404H101.57L101.357 26.7338ZM101.296 26.4578C101.296 26.5191 101.236 26.5498 101.175 26.5498H101.023V26.3658H101.175C101.236 26.3658 101.296 26.3965 101.296 26.4578ZM101.54 26.4578C101.54 26.3658 101.509 26.3045 101.448 26.2432C101.388 26.1818 101.296 26.1512 101.175 26.1512H100.749V27.0404H100.993V26.7644H101.114L101.296 27.0404H101.57L101.357 26.7338C101.479 26.6724 101.54 26.5805 101.54 26.4578ZM101.145 27.347C100.749 27.347 100.446 27.0404 100.446 26.6418C100.446 26.2432 100.749 25.9365 101.145 25.9365C101.54 25.9365 101.844 26.2432 101.844 26.6418C101.844 27.0097 101.509 27.347 101.145 27.347ZM101.145 25.7526C100.658 25.7526 100.294 26.1512 100.294 26.6418C100.294 27.1324 100.689 27.531 101.145 27.531C101.631 27.531 102.026 27.1324 102.026 26.6418C101.996 26.1512 101.6 25.7526 101.145 25.7526ZM101.296 26.4578C101.296 26.5191 101.236 26.5498 101.175 26.5498H101.023V26.3658H101.175C101.236 26.3658 101.296 26.3965 101.296 26.4578ZM101.357 26.7338C101.479 26.7031 101.54 26.6111 101.54 26.4578C101.54 26.3658 101.509 26.3045 101.448 26.2432C101.388 26.1818 101.296 26.1512 101.175 26.1512H100.749V27.0404H100.993V26.7644H101.114L101.296 27.0404H101.57L101.357 26.7338ZM101.296 26.4578C101.296 26.5191 101.236 26.5498 101.175 26.5498H101.023V26.3658H101.175C101.236 26.3658 101.296 26.3965 101.296 26.4578ZM101.357 26.7338C101.479 26.7031 101.54 26.6111 101.54 26.4578C101.54 26.3658 101.509 26.3045 101.448 26.2432C101.388 26.1818 101.296 26.1512 101.175 26.1512H100.749V27.0404H100.993V26.7644H101.114L101.296 27.0404H101.57L101.357 26.7338ZM101.296 26.4578C101.296 26.5191 101.236 26.5498 101.175 26.5498H101.023V26.3658H101.175C101.236 26.3658 101.296 26.3965 101.296 26.4578ZM101.357 26.7338C101.479 26.7031 101.54 26.6111 101.54 26.4578C101.54 26.3658 101.509 26.3045 101.448 26.2432C101.388 26.1818 101.296 26.1512 101.175 26.1512H100.749V27.0404H100.993V26.7644H101.114L101.296 27.0404H101.57L101.357 26.7338ZM101.296 26.4578C101.296 26.5191 101.236 26.5498 101.175 26.5498H101.023V26.3658H101.175C101.236 26.3658 101.296 26.3965 101.296 26.4578ZM101.357 26.7338C101.479 26.7031 101.54 26.6111 101.54 26.4578C101.54 26.3658 101.509 26.3045 101.448 26.2432C101.388 26.1818 101.296 26.1512 101.175 26.1512H100.749V27.0404H100.993V26.7644H101.114L101.296 27.0404H101.57L101.357 26.7338ZM101.296 26.4578C101.296 26.5191 101.236 26.5498 101.175 26.5498H101.023V26.3658H101.175C101.236 26.3658 101.296 26.3965 101.296 26.4578ZM101.357 26.7338C101.479 26.7031 101.54 26.6111 101.54 26.4578C101.54 26.3658 101.509 26.3045 101.448 26.2432C101.388 26.1818 101.296 26.1512 101.175 26.1512H100.749V27.0404H100.993V26.7644H101.114L101.296 27.0404H101.57L101.357 26.7338Z" fill="white"/>
<path fill-rule="evenodd" clip-rule="evenodd" d="M80.9032 32.0384C80.9032 32.7743 80.6905 33.5102 80.265 34.1234C79.8699 34.7367 79.262 35.2273 78.5934 35.5033C77.9248 35.7792 77.165 35.8712 76.4355 35.7179C75.7061 35.5646 75.0375 35.2273 74.5208 34.6754C74.0042 34.1541 73.6394 33.4795 73.4875 32.7436C73.3355 32.0077 73.4267 31.2718 73.7002 30.5666C73.9738 29.892 74.46 29.2787 75.0679 28.8801C75.6757 28.4815 76.4052 28.2362 77.1346 28.2362C78.1375 28.2362 79.0797 28.6348 79.7787 29.3401C80.5081 30.076 80.9032 31.0265 80.9032 32.0384Z" fill="white"/>
<path d="M63.7923 32.3143C63.7923 31.885 63.4884 31.5784 63.1541 31.5784C62.7893 31.5784 62.5158 31.885 62.5158 32.3143C62.5158 32.7436 62.7893 33.0502 63.1541 33.0502C63.4884 33.0195 63.7923 32.7436 63.7923 32.3143ZM62.5158 33.5101V33.9088H61.3913V29.5853H62.5158V31.1185C62.7286 30.8425 63.0021 30.6279 63.4884 30.6279C64.2482 30.6279 64.8864 31.2718 64.8864 32.2836C64.8864 33.3262 64.2482 33.9701 63.4884 33.9701C63.0021 33.9701 62.7286 33.7554 62.5158 33.5101Z" fill="white"/>
<path d="M67.5002 30.6892H68.6551L67.5002 33.8168C67.2266 34.5834 66.9227 34.8593 66.2845 34.8593C65.8894 34.8593 65.5551 34.7673 65.2815 34.5834L65.6159 33.7861C65.7982 33.8781 65.9806 33.9701 66.1021 33.9701C66.2237 33.9701 66.2845 33.9395 66.3757 33.8475L65.0992 30.6892H66.2541L66.8923 32.621L67.5002 30.6892Z" fill="white"/>
</g>
<defs>
<clipPath id="clip0_7746_34146">
<rect width="99" height="32" fill="white" transform="translate(4 4)"/>
</clipPath>
</defs>
</svg>
