<svg width="22" height="15" viewBox="0 0 22 15" fill="none" xmlns="http://www.w3.org/2000/svg">
<path d="M0 0.271907H4.04265V2.35652C4.98593 1.13294 6.19873 0 8.26497 0C10.1066 0 11.544 0.861037 12.3076 2.31121C13.5653 0.81572 15.0476 0 16.9791 0C19.9887 0 21.7854 1.85803 21.7854 5.39281V14.9549H17.7427V6.75235C17.7427 4.75836 16.8893 3.76137 15.3621 3.76137C13.8348 3.76137 12.8916 4.75836 12.8916 6.75235V14.9549H8.84891V6.75235C8.84891 4.75836 7.99546 3.76137 6.46824 3.76137C4.98593 3.76137 4.04265 4.80368 4.04265 6.75235V14.9549H0V0.271907Z" fill="#fff"/>
</svg>
